<?xml version="1.0" encoding="iso-8859-1"?>
<!-- Generator: Adobe Illustrator 18.1.1, SVG Export Plug-In . SVG Version: 6.00 Build 0)  -->
<svg version="1.1" id="Capa_1" xmlns="http://www.w3.org/2000/svg" xmlns:xlink="http://www.w3.org/1999/xlink" x="0px" y="0px"
	 viewBox="0 0 442.354 442.354" style="enable-background:new 0 0 442.354 442.354;" xml:space="preserve">
<g>
	<g>
		<path d="M316.767,4.888L146.483,175.171c-3.117,3.117-4.817,7.367-5.1,11.9l-1.133,86.983c0,4.533,1.7,9.35,5.1,12.467
			c3.117,3.117,7.65,5.667,11.9,5.667h0.283l84.15-1.7c4.533,0,8.783-2.55,11.9-5.667l171.7-171.7
			c6.517-6.517,6.517-17.283,0-24.083l-84.15-84.15C334.05-1.629,323.283-1.629,316.767,4.888z M234.033,255.921l-59.5,0.85
			l0.85-62.333l86.7-86.7l59.783,60.633L234.033,255.921z M345.95,144.004l-59.783-60.633l42.5-42.5l60.067,60.067L345.95,144.004z"
			/>
		<path d="M199.183,54.188c9.35,0,17-7.65,17-17s-7.65-17-17-17h-170c-9.35,0-17,7.65-17,17v388.167c0,9.35,7.65,17,17,17h317.333
			c9.35,0,17-7.65,17-17V266.688c0-9.35-7.65-17-17-17s-17,7.65-17,17v141.667H46.183V54.188H199.183z"/>
	</g>
</g>
<g>
</g>
<g>
</g>
<g>
</g>
<g>
</g>
<g>
</g>
<g>
</g>
<g>
</g>
<g>
</g>
<g>
</g>
<g>
</g>
<g>
</g>
<g>
</g>
<g>
</g>
<g>
</g>
<g>
</g>
</svg>
